M48
; DRILL file {KiCad 9.0.2} date 2025-12-28T12:34:35-0600
; FORMAT={-:-/ absolute / inch / decimal}
; #@! TF.CreationDate,2025-12-28T12:34:35-06:00
; #@! TF.GenerationSoftware,Kicad,Pcbnew,9.0.2
; #@! TF.FileFunction,Plated,1,2,PTH
FMAT,2
INCH
; #@! TA.AperFunction,Plated,PTH,ViaDrill
T1C0.0157
; #@! TA.AperFunction,Plated,PTH,ComponentDrill
T2C0.0197
; #@! TA.AperFunction,Plated,PTH,ComponentDrill
T3C0.0295
; #@! TA.AperFunction,Plated,PTH,ComponentDrill
T4C0.0315
; #@! TA.AperFunction,Plated,PTH,ComponentDrill
T5C0.0394
; #@! TA.AperFunction,Plated,PTH,ComponentDrill
T6C0.0400
; #@! TA.AperFunction,Plated,PTH,ComponentDrill
T7C0.0433
; #@! TA.AperFunction,Plated,PTH,ComponentDrill
T8C0.0669
; #@! TA.AperFunction,Plated,PTH,ComponentDrill
T9C0.1260
%
G90
G05
T1
X2.7577Y-3.8152
X2.7577Y-4.0152
X2.7577Y-6.5108
X2.9937Y-7.4423
X3.0064Y-3.6529
X3.0849Y-7.4463
X3.0899Y-3.0703
X3.1351Y-6.4962
X3.1621Y-3.2473
X3.2332Y-6.6096
X3.2618Y-6.4649
X3.3726Y-7.7501
X3.4316Y-7.553
X3.461Y-7.5959
X3.4647Y-7.8453
X3.4795Y-7.7025
X3.4866Y-7.6632
X3.4872Y-7.7419
X3.5131Y-7.4521
X3.5187Y-7.7946
X3.5197Y-5.9458
X3.5936Y-6.1201
X3.598Y-5.6306
X3.6001Y-7.8933
X3.6931Y-9.8643
X3.6986Y-9.1679
X3.7305Y-9.2333
X3.7439Y-3.1414
X3.7662Y-7.4236
X3.7748Y-8.2242
X3.7882Y-3.0703
X3.7952Y-9.8064
X3.8188Y-10.2025
X3.8593Y-7.8451
X3.8641Y-8.4636
X3.8764Y-8.2219
X3.889Y-11.316
X3.9269Y-8.4611
X3.9887Y-6.4019
X3.9997Y-3.8582
X4.0128Y-6.4992
X4.0275Y-8.2043
X4.097Y-9.6243
X4.1168Y-9.2619
X4.2043Y-7.8343
X4.2329Y-8.1757
X4.2645Y-8.6769
X4.3028Y-9.1965
X4.3049Y-8.6903
X4.3542Y-3.4072
X4.3856Y-3.2532
X4.4657Y-9.4692
X4.5Y-6.7986
X4.5186Y-4.1523
X4.52Y-10.67
X4.53Y-10.58
X4.5359Y-10.3084
X4.541Y-9.2629
X4.6016Y-9.0048
X4.6384Y-7.7537
X4.6384Y-8.1629
X4.7061Y-3.8582
X4.7259Y-6.3532
X4.7384Y-5.7403
X4.7531Y-6.7101
X4.7576Y-6.5784
X4.7593Y-8.0107
X4.7598Y-8.0573
X4.7739Y-6.2086
X4.7783Y-10.1602
X4.78Y-9.93
X4.79Y-10.61
X4.8013Y-6.685
X4.8029Y-5.5539
X4.8029Y-5.8046
X4.8092Y-3.5011
X4.8092Y-4.0589
X4.8092Y-11.0797
X4.8203Y-6.6421
X4.8262Y-9.6962
X4.8342Y-6.5633
X4.8358Y-7.747
X4.84Y-9.84
X4.8504Y-4.0098
X4.8926Y-7.5926
X4.9206Y-6.3124
X4.9474Y-7.7493
X4.9571Y-6.5408
X4.988Y-7.8051
X5.0097Y-7.202
X5.0191Y-10.4883
X5.0632Y-9.2865
X5.0663Y-10.6863
X5.0752Y-7.7487
X5.0966Y-10.5868
X5.1155Y-5.9355
X5.1155Y-6.2086
X5.1258Y-7.4035
X5.127Y-10.7148
X5.1362Y-7.828
X5.1887Y-3.1368
X5.2392Y-9.3854
X5.26Y-11.1075
X5.3173Y-11.0527
X5.3305Y-7.7501
X5.3458Y-11.211
X5.3482Y-9.1367
X5.4115Y-5.6107
X5.4131Y-3.5396
X5.4155Y-11.1666
X5.4295Y-3.1036
X5.4439Y-9.563
X5.4444Y-9.4498
X5.451Y-10.2111
X5.4609Y-8.997
X5.4884Y-10.3574
X5.5Y-10.9066
X5.5Y-11.05
X5.5275Y-3.2326
X5.534Y-6.5633
X5.5362Y-5.3397
X5.5443Y-10.6603
X5.5689Y-3.3174
X5.5759Y-6.5597
X5.6357Y-6.5604
X5.7403Y-5.3738
X5.7808Y-6.8708
X5.7826Y-6.4722
X5.7983Y-6.754
X5.8091Y-11.1173
X5.8211Y-10.7151
X5.8269Y-7.6577
X5.8785Y-8.2201
X5.9056Y-5.769
X5.9087Y-5.9352
X5.9162Y-3.1011
X5.9578Y-3.9816
X5.9946Y-10.2296
X6.0088Y-5.5157
X6.0106Y-3.0569
X6.09Y-10.25
X6.1368Y-5.9722
X6.1548Y-6.2017
X6.1571Y-5.769
X6.1871Y-6.3802
X6.2096Y-6.4156
X6.367Y-6.6235
X6.3774Y-3.5215
X6.3868Y-9.312
X6.3929Y-5.5445
X6.3999Y-3.1011
X6.4001Y-6.601
X6.4152Y-6.3913
X6.45Y-10.77
X6.4539Y-6.2511
X6.5357Y-6.6235
X6.6044Y-7.1085
X6.6172Y-6.3839
X6.6172Y-6.9176
X6.6929Y-7.6365
X6.71Y-9.11
X6.7823Y-6.0122
X6.7948Y-3.0847
X6.7982Y-6.1944
X6.8012Y-3.126
X6.8392Y-11.1341
X6.9197Y-8.1303
X6.9268Y-3.9404
X6.9371Y-6.7641
X6.9584Y-7.5495
X6.9795Y-8.1629
X6.9795Y-8.298
X7.0126Y-4.111
X7.0221Y-5.175
X7.0275Y-9.6216
X7.0315Y-6.7344
X7.1132Y-5.6582
X7.1171Y-3.5808
X7.1332Y-5.4135
X7.149Y-5.1935
X7.1515Y-6.6049
X7.1523Y-3.85
X7.1548Y-5.4897
X7.1684Y-6.2796
X7.1742Y-6.3883
X7.1888Y-5.2841
X7.2197Y-5.2467
X7.2202Y-5.5684
X7.2202Y-5.8694
X7.2399Y-5.2012
X7.2423Y-5.1331
X7.2586Y-8.298
X7.282Y-8.4107
X7.297Y-3.4748
X7.2985Y-8.962
X7.3057Y-6.898
X7.3065Y-5.5042
X7.3175Y-6.6585
X7.3201Y-8.5723
X7.3277Y-5.6623
X7.3366Y-5.5399
X7.3423Y-5.4251
X7.3595Y-10.8204
X7.3621Y-6.4233
X7.3918Y-5.522
X7.3962Y-5.3724
X7.4144Y-6.7312
X7.4318Y-4.972
X7.4372Y-9.9776
X7.4429Y-6.8829
X7.4646Y-10.0586
X7.4746Y-6.0836
X7.4956Y-5.7293
X7.5109Y-7.1057
X7.5473Y-6.9114
X7.5509Y-11.2176
X7.5699Y-4.2843
X7.5794Y-4.4065
X7.5975Y-4.518
X7.6493Y-9.1673
X7.6525Y-6.6424
X7.6594Y-6.2018
X7.6656Y-5.1284
X7.6902Y-6.5144
X7.6982Y-4.6284
X7.7377Y-9.312
X7.7392Y-5.2284
X7.7404Y-4.9054
X7.7522Y-6.6875
X7.7544Y-9.2298
X7.7548Y-9.3602
X7.7576Y-9.7767
X7.7594Y-5.3714
X7.7707Y-10.7739
X7.7711Y-6.4261
X7.7735Y-8.2797
X7.7765Y-9.0895
X7.7869Y-9.8647
X7.8145Y-5.5767
X7.8225Y-9.6584
X7.8582Y-7.1762
X7.871Y-9.6299
X7.8785Y-7.6489
X7.8807Y-4.1049
X7.882Y-6.4276
X7.8883Y-7.2017
X7.9107Y-9.8918
X7.9153Y-3.7409
X7.9169Y-7.9469
X7.9218Y-9.5191
X7.9362Y-5.0284
X7.9662Y-4.4709
X7.9697Y-8.9618
X7.9863Y-4.1216
X8.0152Y-8.3467
X8.025Y-5.4284
X8.0254Y-5.6338
X8.0662Y-8.604
X8.0819Y-3.4808
X8.1251Y-3.521
X8.2131Y-7.0561
X8.2704Y-7.1213
X8.302Y-8.5723
X8.3111Y-7.2368
X8.3337Y-8.4793
X8.3375Y-8.0505
X8.3411Y-3.7412
X8.3607Y-3.9213
X8.3916Y-8.0563
X8.4099Y-10.7225
X8.443Y-10.8657
X8.4876Y-10.526
X8.4906Y-8.6032
X8.498Y-10.276
X8.512Y-8.4127
X8.5268Y-9.8072
X8.5594Y-5.7558
X8.5654Y-7.2479
X8.5733Y-8.9411
X8.5827Y-6.0087
X8.6007Y-8.0909
X8.6239Y-4.4082
X8.6784Y-9.7047
X8.6933Y-8.218
X8.6948Y-3.994
X8.7161Y-3.9275
X8.7211Y-5.3745
X8.7419Y-8.1754
X8.8114Y-8.1388
X8.8114Y-8.4314
X8.8335Y-3.8568
X8.8598Y-6.3193
X8.8955Y-8.0618
X8.93Y-3.5468
X8.9436Y-7.9935
X8.9453Y-3.4266
X8.9564Y-9.5695
X8.965Y-8.2451
X9.0019Y-5.7551
X9.033Y-7.3489
X9.0498Y-9.6208
X9.062Y-7.4503
X9.0967Y-9.8992
X9.1057Y-5.7906
X9.1468Y-9.6503
X9.1535Y-11.5796
X9.1808Y-10.2944
X9.1871Y-5.8387
X9.248Y-5.8366
X9.2607Y-10.3031
X9.3699Y-8.0959
X9.4094Y-4.4643
X9.41Y-7.8342
X9.4112Y-5.8366
X9.4368Y-6.7864
X9.453Y-7.8952
X9.4749Y-6.8589
X9.5212Y-5.8083
X9.5518Y-5.5866
X9.5719Y-10.3557
X9.6316Y-8.2521
X9.635Y-5.9617
X9.6418Y-4.4159
X9.6426Y-4.1216
X9.6611Y-4.3452
X9.6744Y-7.5469
X9.723Y-5.5765
X9.7256Y-9.5926
X9.7317Y-4.299
X9.7355Y-7.5371
X9.774Y-5.6941
X9.7845Y-4.5429
X9.7977Y-6.2945
X9.8228Y-5.5849
X9.834Y-8.233
X9.8733Y-4.3567
X9.8988Y-6.1876
X9.9204Y-4.3873
X9.9508Y-4.3083
X9.9822Y-4.4709
X10.0142Y-4.7216
X10.0209Y-4.1537
X10.0321Y-3.9824
X10.0365Y-3.9145
X10.0795Y-4.7808
X10.0836Y-4.3134
X10.1248Y-6.7867
X10.1599Y-6.7115
X10.1718Y-10.0464
X10.176Y-4.6378
X10.2122Y-7.0521
X10.2306Y-3.5464
X10.2456Y-3.6996
X10.3368Y-9.4522
X10.3406Y-5.7149
X10.3783Y-6.3823
X10.4035Y-8.2776
X10.4132Y-4.4373
X10.4154Y-5.8419
X10.4369Y-8.1198
X10.5403Y-6.0707
X10.5546Y-5.631
X10.5712Y-3.9211
X10.5831Y-5.679
X10.5844Y-7.5105
X10.5848Y-3.8528
X10.6633Y-5.7336
X10.6888Y-10.1824
X10.6947Y-5.6808
X10.6955Y-8.155
X10.6969Y-8.2216
X11.0403Y-6.488
X11.0562Y-7.8846
X11.0694Y-7.0393
X11.1116Y-7.4507
X11.1402Y-6.7253
X11.1632Y-9.9009
X11.255Y-6.0366
X11.27Y-6.6336
X11.3039Y-7.4443
X11.3367Y-7.1393
X11.3665Y-9.9007
X11.3707Y-3.727
X11.6149Y-8.1625
X11.6396Y-7.1196
X11.7023Y-8.1012
X11.7967Y-10.6121
X11.82Y-3.791
X11.9173Y-6.7393
X11.9209Y-6.5552
X11.9404Y-6.7722
X12.0062Y-3.76
X12.0553Y-6.6651
T2
X10.8036Y-4.8647
X10.8036Y-4.9238
T3
X7.513Y-8.241
X7.563Y-8.191
X7.613Y-8.241
T4
X2.8131Y-6.67
X2.931Y-7.002
X2.931Y-7.102
X2.931Y-7.202
X2.931Y-7.302
X2.931Y-7.402
X2.931Y-7.502
X2.931Y-7.602
X2.931Y-7.702
X2.931Y-7.802
X2.931Y-7.902
X2.931Y-8.002
X2.931Y-8.102
X2.931Y-8.202
X2.931Y-8.302
X2.9757Y-11.4129
X2.9757Y-11.7129
X3.0035Y-9.5564
X3.0035Y-9.6564
X3.0035Y-9.7564
X3.0035Y-9.8564
X3.0035Y-9.9564
X3.0035Y-10.0564
X3.0035Y-10.1564
X3.0035Y-10.2564
X3.0035Y-10.3564
X3.0035Y-10.4564
X3.0035Y-10.5564
X3.0035Y-10.6564
X3.0035Y-10.7564
X3.0035Y-10.8564
X3.0035Y-10.9564
X3.0035Y-11.0564
X3.01Y-6.67
X3.2069Y-9.3002
X3.231Y-7.002
X3.231Y-7.102
X3.231Y-7.202
X3.231Y-7.302
X3.231Y-7.402
X3.231Y-7.502
X3.231Y-7.602
X3.231Y-7.702
X3.231Y-7.802
X3.231Y-7.902
X3.231Y-8.002
X3.231Y-8.102
X3.231Y-8.202
X3.231Y-8.302
X3.2625Y-6.4012
X3.286Y-2.888
X3.2883Y-4.6562
X3.3031Y-6.8209
X3.3867Y-4.6562
X3.4037Y-9.3002
X3.44Y-5.025
X3.44Y-5.325
X3.4594Y-6.4012
X3.5Y-6.8209
X3.581Y-8.043
X3.581Y-8.343
X3.586Y-2.888
X3.6035Y-9.5564
X3.6035Y-9.6564
X3.6035Y-9.7564
X3.6035Y-9.8564
X3.6035Y-9.9564
X3.6035Y-10.0564
X3.6035Y-10.1564
X3.6035Y-10.2564
X3.6035Y-10.3564
X3.6035Y-10.4564
X3.6035Y-10.5564
X3.6035Y-10.6564
X3.6035Y-10.7564
X3.6035Y-10.8564
X3.6035Y-10.9564
X3.6035Y-11.0564
X3.6194Y-7.002
X3.6194Y-7.102
X3.6194Y-7.202
X3.6194Y-7.302
X3.6194Y-7.402
X3.6194Y-7.502
X3.6194Y-7.602
X3.6194Y-7.702
X3.681Y-8.043
X3.681Y-8.343
X3.781Y-8.043
X3.781Y-8.343
X3.881Y-8.043
X3.881Y-8.343
X3.889Y-10.815
X3.889Y-11.115
X3.9194Y-7.002
X3.9194Y-7.102
X3.9194Y-7.202
X3.9194Y-7.302
X3.9194Y-7.402
X3.9194Y-7.502
X3.9194Y-7.602
X3.9194Y-7.702
X3.92Y-9.58
X3.92Y-9.68
X3.92Y-9.78
X3.92Y-9.88
X3.92Y-9.98
X3.92Y-10.08
X3.92Y-10.18
X3.92Y-10.28
X3.92Y-10.38
X3.92Y-10.48
X3.981Y-8.043
X3.981Y-8.343
X3.9981Y-9.299
X4.0525Y-6.3792
X4.081Y-8.043
X4.081Y-8.343
X4.0831Y-6.8209
X4.1075Y-4.6562
X4.181Y-8.043
X4.181Y-8.343
X4.195Y-9.299
X4.199Y-10.803
X4.199Y-11.103
X4.2059Y-4.6562
X4.22Y-9.58
X4.22Y-9.68
X4.22Y-9.78
X4.22Y-9.88
X4.22Y-9.98
X4.22Y-10.08
X4.22Y-10.18
X4.22Y-10.28
X4.22Y-10.38
X4.22Y-10.48
X4.2494Y-6.3792
X4.28Y-6.8209
X4.281Y-8.043
X4.281Y-8.343
X4.2916Y-11.316
X4.39Y-11.316
X4.4294Y-7.002
X4.4294Y-7.102
X4.4294Y-7.202
X4.4294Y-7.302
X4.4294Y-7.402
X4.4294Y-7.502
X4.4294Y-7.602
X4.4294Y-7.702
X4.518Y-8.0941
X4.518Y-8.291
X4.6386Y-9.6358
X4.6386Y-9.7358
X4.6386Y-9.8358
X4.6386Y-9.9358
X4.6386Y-10.0358
X4.6386Y-10.1358
X4.6386Y-10.2358
X4.6386Y-10.3358
X4.6386Y-10.4358
X4.6386Y-10.5358
X4.6386Y-10.6358
X4.6386Y-10.7358
X4.6386Y-10.8358
X4.6386Y-10.9358
X4.6437Y-11.3352
X4.6437Y-11.6352
X4.7294Y-7.002
X4.7294Y-7.102
X4.7294Y-7.202
X4.7294Y-7.302
X4.7294Y-7.402
X4.7294Y-7.502
X4.7294Y-7.602
X4.7294Y-7.702
X4.7437Y-11.3352
X4.7437Y-11.6352
X4.8437Y-11.3352
X4.8437Y-11.6352
X4.8527Y-6.3382
X4.8931Y-6.8209
X4.9335Y-4.6562
X4.9437Y-11.3352
X4.9437Y-11.6352
X4.991Y-8.447
X4.991Y-8.547
X4.991Y-8.647
X4.991Y-8.747
X4.991Y-8.847
X4.991Y-8.947
X4.991Y-9.047
X5.0319Y-4.6562
X5.0437Y-11.3352
X5.0437Y-11.6352
X5.0496Y-6.3382
X5.09Y-6.8209
X5.1011Y-9.333
X5.1437Y-11.3352
X5.1437Y-11.6352
X5.2386Y-9.6358
X5.2386Y-9.7358
X5.2386Y-9.8358
X5.2386Y-9.9358
X5.2386Y-10.0358
X5.2386Y-10.1358
X5.2386Y-10.2358
X5.2386Y-10.3358
X5.2386Y-10.4358
X5.2386Y-10.5358
X5.2386Y-10.6358
X5.2386Y-10.7358
X5.2386Y-10.8358
X5.2386Y-10.9358
X5.2395Y-7.002
X5.2395Y-7.102
X5.2395Y-7.202
X5.2395Y-7.302
X5.2395Y-7.402
X5.2395Y-7.502
X5.2395Y-7.602
X5.2395Y-7.702
X5.2395Y-7.802
X5.2395Y-7.902
X5.2437Y-11.3352
X5.2437Y-11.6352
X5.291Y-8.447
X5.291Y-8.547
X5.291Y-8.647
X5.291Y-8.747
X5.291Y-8.847
X5.291Y-8.947
X5.291Y-9.047
X5.298Y-9.333
X5.4969Y-8.8952
X5.5395Y-7.002
X5.5395Y-7.102
X5.5395Y-7.202
X5.5395Y-7.302
X5.5395Y-7.402
X5.5395Y-7.502
X5.5395Y-7.602
X5.5395Y-7.702
X5.5395Y-7.802
X5.5395Y-7.902
X5.55Y-8.272
X5.5925Y-6.3432
X5.6287Y-10.4602
X5.6287Y-10.5602
X5.6287Y-10.6602
X5.6287Y-10.7602
X5.6287Y-10.8602
X5.6287Y-10.9602
X5.6287Y-11.0602
X5.64Y-9.115
X5.64Y-9.215
X5.64Y-9.315
X5.64Y-9.415
X5.64Y-9.515
X5.64Y-9.615
X5.64Y-9.715
X5.64Y-9.815
X5.65Y-8.272
X5.6705Y-10.1562
X5.6831Y-6.82
X5.6937Y-8.8952
X5.7127Y-4.6562
X5.75Y-8.272
X5.7894Y-6.3432
X5.8112Y-4.6562
X5.85Y-8.272
X5.8674Y-10.1562
X5.88Y-6.82
X5.9287Y-10.4602
X5.9287Y-10.5602
X5.9287Y-10.6602
X5.9287Y-10.7602
X5.9287Y-10.8602
X5.9287Y-10.9602
X5.9287Y-11.0602
X5.94Y-9.115
X5.94Y-9.215
X5.94Y-9.315
X5.94Y-9.415
X5.94Y-9.515
X5.94Y-9.615
X5.94Y-9.715
X5.94Y-9.815
X5.95Y-8.272
X6.0496Y-7.002
X6.0496Y-7.102
X6.0496Y-7.202
X6.0496Y-7.302
X6.0496Y-7.402
X6.0496Y-7.502
X6.0496Y-7.602
X6.0496Y-7.702
X6.05Y-8.272
X6.0527Y-11.2742
X6.15Y-8.272
X6.1512Y-11.2742
X6.25Y-8.272
X6.28Y-9.16
X6.28Y-9.26
X6.28Y-9.36
X6.28Y-9.46
X6.28Y-9.56
X6.28Y-9.66
X6.28Y-9.76
X6.28Y-9.86
X6.28Y-9.96
X6.28Y-10.06
X6.28Y-10.16
X6.28Y-10.26
X6.28Y-10.36
X6.28Y-10.46
X6.28Y-10.56
X6.28Y-10.66
X6.28Y-10.76
X6.28Y-10.86
X6.28Y-10.96
X6.28Y-11.06
X6.3496Y-7.002
X6.3496Y-7.102
X6.3496Y-7.202
X6.3496Y-7.302
X6.3496Y-7.402
X6.3496Y-7.502
X6.3496Y-7.602
X6.3496Y-7.702
X6.35Y-8.272
X6.45Y-8.272
X6.5046Y-4.667
X6.5131Y-6.8209
X6.5285Y-6.3752
X6.603Y-4.667
X6.71Y-6.8209
X6.7254Y-6.3752
X6.7541Y-9.01
X6.8596Y-7.002
X6.8596Y-7.102
X6.8596Y-7.202
X6.8596Y-7.302
X6.8596Y-7.402
X6.8596Y-7.502
X6.8596Y-7.602
X6.8596Y-7.702
X6.8596Y-7.802
X6.8596Y-7.902
X6.88Y-9.16
X6.88Y-9.26
X6.88Y-9.36
X6.88Y-9.46
X6.88Y-9.56
X6.88Y-9.66
X6.88Y-9.76
X6.88Y-9.86
X6.88Y-9.96
X6.88Y-10.06
X6.88Y-10.16
X6.88Y-10.26
X6.88Y-10.36
X6.88Y-10.46
X6.88Y-10.56
X6.88Y-10.66
X6.88Y-10.76
X6.88Y-10.86
X6.88Y-10.96
X6.88Y-11.06
X6.951Y-9.01
X7.1596Y-7.002
X7.1596Y-7.102
X7.1596Y-7.202
X7.1596Y-7.302
X7.1596Y-7.402
X7.1596Y-7.502
X7.1596Y-7.602
X7.1596Y-7.702
X7.1596Y-7.802
X7.1596Y-7.902
X7.16Y-8.237
X7.191Y-8.912
X7.191Y-9.012
X7.191Y-9.112
X7.191Y-9.212
X7.191Y-9.312
X7.191Y-9.412
X7.191Y-9.512
X7.191Y-9.612
X7.191Y-9.712
X7.191Y-9.812
X7.201Y-10.176
X7.201Y-10.276
X7.201Y-10.376
X7.201Y-10.476
X7.201Y-10.576
X7.201Y-10.676
X7.201Y-10.776
X7.201Y-10.876
X7.201Y-10.976
X7.201Y-11.076
X7.251Y-6.376
X7.3218Y-6.8209
X7.3569Y-8.237
X7.4479Y-6.376
X7.491Y-8.912
X7.491Y-9.012
X7.491Y-9.112
X7.491Y-9.212
X7.491Y-9.312
X7.491Y-9.412
X7.491Y-9.512
X7.491Y-9.612
X7.491Y-9.712
X7.491Y-9.812
X7.501Y-10.176
X7.501Y-10.276
X7.501Y-10.376
X7.501Y-10.476
X7.501Y-10.576
X7.501Y-10.676
X7.501Y-10.776
X7.501Y-10.876
X7.501Y-10.976
X7.501Y-11.076
X7.5187Y-6.8209
X7.6331Y-10.005
X7.6697Y-7.002
X7.6697Y-7.102
X7.6697Y-7.202
X7.6697Y-7.302
X7.6697Y-7.402
X7.6697Y-7.502
X7.6697Y-7.602
X7.6697Y-7.702
X7.6697Y-7.802
X7.6697Y-7.902
X7.83Y-10.005
X7.9331Y-8.24
X7.9697Y-7.002
X7.9697Y-7.102
X7.9697Y-7.202
X7.9697Y-7.302
X7.9697Y-7.402
X7.9697Y-7.502
X7.9697Y-7.602
X7.9697Y-7.702
X7.9697Y-7.802
X7.9697Y-7.902
X7.971Y-10.176
X7.971Y-10.276
X7.971Y-10.376
X7.971Y-10.476
X7.971Y-10.576
X7.971Y-10.676
X7.971Y-10.776
X7.9931Y-2.876
X8.0011Y-8.695
X8.006Y-5.848
X8.006Y-6.0449
X8.006Y-11.047
X8.064Y-8.912
X8.064Y-9.012
X8.064Y-9.112
X8.064Y-9.212
X8.064Y-9.312
X8.064Y-9.412
X8.064Y-9.512
X8.0711Y-4.431
X8.13Y-8.24
X8.1431Y-6.8209
X8.19Y-2.876
X8.198Y-8.695
X8.1994Y-3.0968
X8.1994Y-3.1968
X8.1994Y-3.2968
X8.1994Y-3.3968
X8.1994Y-3.4968
X8.1994Y-3.5968
X8.1994Y-3.6968
X8.1994Y-3.7968
X8.1994Y-3.8968
X8.1994Y-3.9968
X8.1994Y-4.6284
X8.1994Y-4.7284
X8.1994Y-4.8284
X8.1994Y-4.9284
X8.1994Y-5.0284
X8.1994Y-5.1284
X8.1994Y-5.2284
X8.1994Y-5.3284
X8.1994Y-5.4284
X8.1994Y-5.5284
X8.1994Y-5.9234
X8.1994Y-6.0234
X8.1994Y-6.1234
X8.1994Y-6.2234
X8.1994Y-6.3234
X8.1994Y-6.4234
X8.1994Y-6.5234
X8.2029Y-11.047
X8.268Y-4.431
X8.271Y-10.176
X8.271Y-10.276
X8.271Y-10.376
X8.271Y-10.476
X8.271Y-10.576
X8.271Y-10.676
X8.271Y-10.776
X8.34Y-6.8209
X8.364Y-8.912
X8.364Y-9.012
X8.364Y-9.112
X8.364Y-9.212
X8.364Y-9.312
X8.364Y-9.412
X8.364Y-9.512
X8.4797Y-7.002
X8.4797Y-7.102
X8.4797Y-7.202
X8.4797Y-7.302
X8.4797Y-7.402
X8.4797Y-7.502
X8.4797Y-7.602
X8.4797Y-7.702
X8.4797Y-7.802
X8.4797Y-7.902
X8.4994Y-3.0968
X8.4994Y-3.1968
X8.4994Y-3.2968
X8.4994Y-3.3968
X8.4994Y-3.4968
X8.4994Y-3.5968
X8.4994Y-3.6968
X8.4994Y-3.7968
X8.4994Y-3.8968
X8.4994Y-3.9968
X8.4994Y-4.6284
X8.4994Y-4.7284
X8.4994Y-4.8284
X8.4994Y-4.9284
X8.4994Y-5.0284
X8.4994Y-5.1284
X8.4994Y-5.2284
X8.4994Y-5.3284
X8.4994Y-5.4284
X8.4994Y-5.5284
X8.4994Y-5.9234
X8.4994Y-6.0234
X8.4994Y-6.1234
X8.4994Y-6.2234
X8.4994Y-6.3234
X8.4994Y-6.4234
X8.4994Y-6.5234
X8.5931Y-8.715
X8.6618Y-2.894
X8.693Y-10.176
X8.693Y-10.276
X8.693Y-10.376
X8.693Y-10.476
X8.693Y-10.576
X8.693Y-10.676
X8.693Y-10.776
X8.704Y-11.047
X8.7797Y-7.002
X8.7797Y-7.102
X8.7797Y-7.202
X8.7797Y-7.302
X8.7797Y-7.402
X8.7797Y-7.502
X8.7797Y-7.602
X8.7797Y-7.702
X8.7797Y-7.802
X8.7797Y-7.902
X8.7891Y-4.614
X8.79Y-8.715
X8.8587Y-2.894
X8.9009Y-11.047
X8.9031Y-6.8209
X8.9121Y-4.8272
X8.9121Y-4.9272
X8.9121Y-5.0272
X8.9121Y-5.1272
X8.9121Y-5.2272
X8.9121Y-5.3272
X8.9121Y-5.4272
X8.9121Y-5.5272
X8.937Y-8.912
X8.937Y-9.012
X8.937Y-9.112
X8.937Y-9.212
X8.937Y-9.312
X8.937Y-9.412
X8.937Y-9.512
X8.986Y-4.614
X8.993Y-10.176
X8.993Y-10.276
X8.993Y-10.376
X8.993Y-10.476
X8.993Y-10.576
X8.993Y-10.676
X8.993Y-10.776
X9.0145Y-3.0968
X9.0145Y-3.1968
X9.0145Y-3.2968
X9.0145Y-3.3968
X9.0145Y-3.4968
X9.0145Y-3.5968
X9.0145Y-3.6968
X9.0145Y-3.7968
X9.0145Y-3.8968
X9.0145Y-3.9968
X9.02Y-8.14
X9.02Y-8.44
X9.082Y-5.931
X9.082Y-6.031
X9.082Y-6.131
X9.082Y-6.231
X9.082Y-6.331
X9.082Y-6.431
X9.082Y-6.531
X9.1Y-6.8209
X9.12Y-8.14
X9.12Y-8.44
X9.2121Y-4.8272
X9.2121Y-4.9272
X9.2121Y-5.0272
X9.2121Y-5.1272
X9.2121Y-5.2272
X9.2121Y-5.3272
X9.2121Y-5.4272
X9.2121Y-5.5272
X9.22Y-8.14
X9.22Y-8.44
X9.237Y-8.912
X9.237Y-9.012
X9.237Y-9.112
X9.237Y-9.212
X9.237Y-9.312
X9.237Y-9.412
X9.237Y-9.512
X9.2898Y-7.002
X9.2898Y-7.102
X9.2898Y-7.202
X9.2898Y-7.302
X9.2898Y-7.402
X9.2898Y-7.502
X9.2898Y-7.602
X9.2898Y-7.702
X9.3145Y-3.0968
X9.3145Y-3.1968
X9.3145Y-3.2968
X9.3145Y-3.3968
X9.3145Y-3.4968
X9.3145Y-3.5968
X9.3145Y-3.6968
X9.3145Y-3.7968
X9.3145Y-3.8968
X9.3145Y-3.9968
X9.32Y-8.14
X9.32Y-8.44
X9.336Y-10.21
X9.336Y-10.31
X9.336Y-10.41
X9.336Y-10.51
X9.336Y-10.61
X9.336Y-10.71
X9.336Y-10.81
X9.3671Y-11.09
X9.382Y-5.931
X9.382Y-6.031
X9.382Y-6.131
X9.382Y-6.231
X9.382Y-6.331
X9.382Y-6.431
X9.382Y-6.531
X9.42Y-8.14
X9.42Y-8.44
X9.4351Y-2.886
X9.4531Y-8.71
X9.5001Y-4.433
X9.52Y-8.14
X9.52Y-8.44
X9.564Y-11.09
X9.58Y-5.87
X9.58Y-6.0669
X9.5898Y-7.002
X9.5898Y-7.102
X9.5898Y-7.202
X9.5898Y-7.302
X9.5898Y-7.402
X9.5898Y-7.502
X9.5898Y-7.602
X9.5898Y-7.702
X9.62Y-8.14
X9.62Y-8.44
X9.6249Y-4.6284
X9.6249Y-4.7284
X9.6249Y-4.8284
X9.6249Y-4.9284
X9.6249Y-5.0284
X9.6249Y-5.1284
X9.6249Y-5.2284
X9.6249Y-5.3284
X9.6249Y-5.4284
X9.6249Y-5.5284
X9.632Y-2.886
X9.636Y-10.21
X9.636Y-10.31
X9.636Y-10.41
X9.636Y-10.51
X9.636Y-10.61
X9.636Y-10.71
X9.636Y-10.81
X9.65Y-8.71
X9.697Y-4.433
X9.7518Y-6.8209
X9.81Y-8.91
X9.81Y-9.01
X9.81Y-9.11
X9.81Y-9.21
X9.81Y-9.31
X9.81Y-9.41
X9.81Y-9.51
X9.81Y-9.61
X9.81Y-9.71
X9.81Y-9.81
X9.8297Y-3.0968
X9.8297Y-3.1968
X9.8297Y-3.2968
X9.8297Y-3.3968
X9.8297Y-3.4968
X9.8297Y-3.5968
X9.8297Y-3.6968
X9.8297Y-3.7968
X9.8297Y-3.8968
X9.8297Y-3.9968
X9.9249Y-4.6284
X9.9249Y-4.7284
X9.9249Y-4.8284
X9.9249Y-4.9284
X9.9249Y-5.0284
X9.9249Y-5.1284
X9.9249Y-5.2284
X9.9249Y-5.3284
X9.9249Y-5.4284
X9.9249Y-5.5284
X9.93Y-10.2
X9.93Y-10.3
X9.93Y-10.4
X9.93Y-10.5
X9.93Y-10.6
X9.93Y-10.7
X9.93Y-10.8
X9.9487Y-6.8209
X9.9646Y-5.916
X9.9646Y-6.016
X9.9646Y-6.116
X9.9646Y-6.216
X9.9646Y-6.316
X9.9646Y-6.416
X9.9646Y-6.516
X10.0999Y-6.994
X10.0999Y-7.094
X10.0999Y-7.194
X10.0999Y-7.294
X10.0999Y-7.394
X10.0999Y-7.494
X10.0999Y-7.594
X10.0999Y-7.694
X10.0999Y-7.794
X10.0999Y-7.894
X10.11Y-8.91
X10.11Y-9.01
X10.11Y-9.11
X10.11Y-9.21
X10.11Y-9.31
X10.11Y-9.41
X10.11Y-9.51
X10.11Y-9.61
X10.11Y-9.71
X10.11Y-9.81
X10.1297Y-3.0968
X10.1297Y-3.1968
X10.1297Y-3.2968
X10.1297Y-3.3968
X10.1297Y-3.4968
X10.1297Y-3.5968
X10.1297Y-3.6968
X10.1297Y-3.7968
X10.1297Y-3.8968
X10.1297Y-3.9968
X10.2061Y-4.532
X10.23Y-10.2
X10.23Y-10.3
X10.23Y-10.4
X10.23Y-10.5
X10.23Y-10.6
X10.23Y-10.7
X10.23Y-10.8
X10.2646Y-5.916
X10.2646Y-6.016
X10.2646Y-6.116
X10.2646Y-6.216
X10.2646Y-6.316
X10.2646Y-6.416
X10.2646Y-6.516
X10.3331Y-2.886
X10.3376Y-4.7288
X10.3376Y-4.8288
X10.3376Y-4.9288
X10.3376Y-5.0288
X10.3376Y-5.1288
X10.3376Y-5.2288
X10.3376Y-5.3288
X10.3376Y-5.4288
X10.3376Y-5.5288
X10.3999Y-6.994
X10.3999Y-7.094
X10.3999Y-7.194
X10.3999Y-7.294
X10.3999Y-7.394
X10.3999Y-7.494
X10.3999Y-7.594
X10.3999Y-7.694
X10.3999Y-7.794
X10.3999Y-7.894
X10.403Y-4.532
X10.468Y-8.868
X10.468Y-8.9664
X10.47Y-8.388
X10.4713Y-9.1307
X10.4713Y-9.2292
X10.475Y-9.4
X10.475Y-9.4984
X10.481Y-9.6666
X10.481Y-9.765
X10.53Y-2.886
X10.5531Y-6.8209
X10.57Y-8.388
X10.6376Y-4.7288
X10.6376Y-4.8288
X10.6376Y-4.9288
X10.6376Y-5.0288
X10.6376Y-5.1288
X10.6376Y-5.2288
X10.6376Y-5.3288
X10.6376Y-5.4288
X10.6376Y-5.5288
X10.6448Y-3.0968
X10.6448Y-3.1968
X10.6448Y-3.2968
X10.6448Y-3.3968
X10.6448Y-3.4968
X10.6448Y-3.5968
X10.6448Y-3.6968
X10.6448Y-3.7968
X10.6448Y-3.8968
X10.6448Y-3.9968
X10.67Y-8.388
X10.7287Y-9.1022
X10.7287Y-9.2022
X10.7287Y-9.3022
X10.7287Y-9.4022
X10.7287Y-9.5022
X10.7287Y-9.6022
X10.7287Y-9.7022
X10.7287Y-9.8022
X10.7337Y-10.1422
X10.75Y-6.8209
X10.7535Y-10.4388
X10.7535Y-10.5388
X10.7535Y-10.6388
X10.7535Y-10.7388
X10.7535Y-10.8388
X10.7535Y-10.9388
X10.7535Y-11.0388
X10.77Y-8.388
X10.7781Y-8.855
X10.8137Y-5.2248
X10.8199Y-5.0798
X10.8472Y-5.938
X10.8472Y-6.038
X10.8472Y-6.138
X10.8472Y-6.238
X10.8472Y-6.338
X10.8472Y-6.438
X10.8472Y-6.538
X10.87Y-8.388
X10.9099Y-6.995
X10.9099Y-7.095
X10.9099Y-7.195
X10.9099Y-7.295
X10.9099Y-7.395
X10.9099Y-7.495
X10.9099Y-7.595
X10.9099Y-7.695
X10.9099Y-7.795
X10.9099Y-7.895
X10.9306Y-10.1422
X10.9448Y-3.0968
X10.9448Y-3.1968
X10.9448Y-3.2968
X10.9448Y-3.3968
X10.9448Y-3.4968
X10.9448Y-3.5968
X10.9448Y-3.6968
X10.9448Y-3.7968
X10.9448Y-3.8968
X10.9448Y-3.9968
X10.97Y-8.388
X10.975Y-8.855
X11.0106Y-5.2248
X11.0168Y-5.0798
X11.0287Y-9.1022
X11.0287Y-9.2022
X11.0287Y-9.3022
X11.0287Y-9.4022
X11.0287Y-9.5022
X11.0287Y-9.6022
X11.0287Y-9.7022
X11.0287Y-9.8022
X11.0535Y-10.4388
X11.0535Y-10.5388
X11.0535Y-10.6388
X11.0535Y-10.7388
X11.0535Y-10.8388
X11.0535Y-10.9388
X11.0535Y-11.0388
X11.0637Y-9.9329
X11.0637Y-10.2329
X11.07Y-8.388
X11.1131Y-2.8919
X11.1472Y-5.938
X11.1472Y-6.038
X11.1472Y-6.138
X11.1472Y-6.238
X11.1472Y-6.338
X11.1472Y-6.438
X11.1472Y-6.538
X11.17Y-8.388
X11.2099Y-6.995
X11.2099Y-7.095
X11.2099Y-7.195
X11.2099Y-7.295
X11.2099Y-7.395
X11.2099Y-7.495
X11.2099Y-7.595
X11.2099Y-7.695
X11.2099Y-7.795
X11.2099Y-7.895
X11.2587Y-9.7552
X11.2587Y-9.8552
X11.2587Y-9.9552
X11.2587Y-10.0552
X11.2587Y-10.1552
X11.2587Y-10.2552
X11.2587Y-10.3552
X11.2587Y-10.4552
X11.2587Y-10.5552
X11.2587Y-10.6552
X11.2587Y-10.7552
X11.2587Y-10.8552
X11.2587Y-10.9552
X11.2587Y-11.0552
X11.27Y-8.388
X11.288Y-8.864
X11.288Y-8.9624
X11.31Y-2.8919
X11.37Y-8.388
X11.3918Y-6.8209
X11.45Y-5.9001
X11.45Y-6.097
X11.46Y-3.09
X11.46Y-3.19
X11.46Y-3.29
X11.46Y-3.39
X11.46Y-3.49
X11.46Y-3.59
X11.46Y-3.69
X11.533Y-9.207
X11.533Y-9.507
X11.5887Y-6.8209
X11.6229Y-5.7356
X11.72Y-7.02
X11.72Y-7.12
X11.72Y-7.22
X11.72Y-7.32
X11.72Y-7.42
X11.72Y-7.52
X11.72Y-7.62
X11.7231Y-9.531
X11.7298Y-5.9366
X11.7298Y-6.0366
X11.7298Y-6.1366
X11.7298Y-6.2366
X11.7298Y-6.3366
X11.7298Y-6.4366
X11.7298Y-6.5366
X11.76Y-3.09
X11.76Y-3.19
X11.76Y-3.29
X11.76Y-3.39
X11.76Y-3.49
X11.76Y-3.59
X11.76Y-3.69
X11.8198Y-5.7356
X11.8587Y-9.7552
X11.8587Y-9.8552
X11.8587Y-9.9552
X11.8587Y-10.0552
X11.8587Y-10.1552
X11.8587Y-10.2552
X11.8587Y-10.3552
X11.8587Y-10.4552
X11.8587Y-10.5552
X11.8587Y-10.6552
X11.8587Y-10.7552
X11.8587Y-10.8552
X11.8587Y-10.9552
X11.8587Y-11.0552
X11.92Y-9.531
X12.02Y-7.02
X12.02Y-7.12
X12.02Y-7.22
X12.02Y-7.32
X12.02Y-7.42
X12.02Y-7.52
X12.02Y-7.62
X12.0298Y-5.9366
X12.0298Y-6.0366
X12.0298Y-6.1366
X12.0298Y-6.2366
X12.0298Y-6.3366
X12.0298Y-6.4366
X12.0298Y-6.5366
X12.1061Y-10.4943
X12.1061Y-10.7943
X12.114Y-10.001
X12.114Y-10.301
T5
X2.8647Y-8.9522
X2.8647Y-9.1294
X3.1206Y-8.9522
X3.1206Y-9.1294
X3.2525Y-5.6052
X3.2525Y-5.7052
X3.2525Y-5.8052
X3.2525Y-5.9052
X3.2525Y-6.0052
X3.2525Y-6.1052
X3.3525Y-5.6052
X3.3525Y-5.7052
X3.3525Y-5.8052
X3.3525Y-5.9052
X3.3525Y-6.0052
X3.3525Y-6.1052
X4.0673Y-5.6052
X4.0673Y-5.7052
X4.0673Y-5.8052
X4.0673Y-5.9052
X4.0673Y-6.0052
X4.0673Y-6.1052
X4.1673Y-5.6052
X4.1673Y-5.7052
X4.1673Y-5.8052
X4.1673Y-5.9052
X4.1673Y-6.0052
X4.1673Y-6.1052
X4.66Y-8.893
X4.66Y-8.993
X4.66Y-9.093
X4.8675Y-5.6002
X4.8675Y-5.7002
X4.8675Y-5.8002
X4.8675Y-5.9002
X4.8675Y-6.0002
X4.8675Y-6.1002
X4.9675Y-5.6002
X4.9675Y-5.7002
X4.9675Y-5.8002
X4.9675Y-5.9002
X4.9675Y-6.0002
X4.9675Y-6.1002
X5.5507Y-11.458
X5.5507Y-11.558
X5.6675Y-5.6052
X5.6675Y-5.7052
X5.6675Y-5.8052
X5.6675Y-5.9052
X5.6675Y-6.0052
X5.6675Y-6.1052
X5.7675Y-5.6052
X5.7675Y-5.7052
X5.7675Y-5.8052
X5.7675Y-5.9052
X5.7675Y-6.0052
X5.7675Y-6.1052
X6.2685Y-8.5556
X6.2685Y-8.6556
X6.2685Y-8.7556
X6.2685Y-8.8556
X6.3685Y-8.5556
X6.3685Y-8.6556
X6.3685Y-8.7556
X6.3685Y-8.8556
X6.4567Y-5.6042
X6.4567Y-5.7042
X6.4567Y-5.8042
X6.4567Y-5.9042
X6.4567Y-6.0042
X6.4567Y-6.1042
X6.5567Y-5.6042
X6.5567Y-5.7042
X6.5567Y-5.8042
X6.5567Y-5.9042
X6.5567Y-6.0042
X6.5567Y-6.1042
X7.2161Y-8.5597
X7.2161Y-8.6597
X7.274Y-5.615
X7.274Y-5.715
X7.274Y-5.815
X7.274Y-5.915
X7.274Y-6.015
X7.274Y-6.115
X7.374Y-5.615
X7.374Y-5.715
X7.374Y-5.815
X7.374Y-5.915
X7.374Y-6.015
X7.374Y-6.115
X7.5263Y-8.5253
X7.5263Y-8.7025
X7.7822Y-8.5253
X7.7822Y-8.7025
X7.841Y-3.11
X7.841Y-3.21
X7.841Y-3.31
X7.841Y-3.41
X7.941Y-3.11
X7.941Y-3.21
X7.941Y-3.31
X7.941Y-3.41
X9.907Y-2.38
X9.907Y-2.48
X10.225Y-2.368
X10.225Y-2.468
X10.325Y-2.368
X10.325Y-2.468
X10.425Y-2.368
X10.425Y-2.468
X10.525Y-2.368
X10.525Y-2.468
X10.625Y-2.368
X10.625Y-2.468
X10.97Y-2.447
X11.07Y-2.447
X11.17Y-2.447
X11.27Y-2.447
X11.299Y-9.296
X11.299Y-9.396
X11.37Y-2.447
X11.47Y-2.447
X12.0306Y-5.0318
X12.0306Y-5.1318
X12.0306Y-5.2318
X12.0306Y-5.3318
T6
X2.8687Y-3.2152
X2.8687Y-3.3152
X2.8687Y-3.4152
X2.8687Y-3.5152
X2.8687Y-3.6152
X2.8687Y-3.7152
X2.8687Y-3.8152
X2.8687Y-3.9152
X2.8687Y-4.0152
X2.8687Y-4.1152
X2.8687Y-4.2152
X2.8687Y-4.3152
X2.8687Y-4.4152
X2.8687Y-4.5152
X2.8687Y-4.6152
X2.8687Y-4.7152
X2.8687Y-4.8152
X2.8687Y-4.9152
X2.8687Y-5.0152
X2.8687Y-5.1152
X2.8687Y-5.2152
X2.8687Y-5.3152
X2.8687Y-5.4152
X2.8687Y-5.5152
X2.8687Y-5.6152
X2.8687Y-5.7152
X2.8687Y-5.8152
X2.8687Y-5.9152
X2.8687Y-6.0152
X2.8687Y-6.1152
X2.8687Y-6.2152
X3.0687Y-3.2152
X3.0687Y-3.3152
X3.0687Y-3.4152
X3.0687Y-3.5152
X3.0687Y-3.6152
X3.0687Y-3.7152
X3.0687Y-3.8152
X3.0687Y-3.9152
X3.0687Y-4.0152
X3.0687Y-4.1152
X3.0687Y-4.2152
X3.0687Y-4.3152
X3.0687Y-4.4152
X3.0687Y-4.5152
X3.0687Y-4.6152
X3.0687Y-4.7152
X3.0687Y-4.8152
X3.0687Y-4.9152
X3.0687Y-5.0152
X3.0687Y-5.1152
X3.0687Y-5.2152
X3.0687Y-5.3152
X3.0687Y-5.4152
X3.0687Y-5.5152
X3.0687Y-5.6152
X3.0687Y-5.7152
X3.0687Y-5.8152
X3.0687Y-5.9152
X3.0687Y-6.0152
X3.0687Y-6.1152
X3.0687Y-6.2152
X3.6687Y-3.2152
X3.6687Y-3.3152
X3.6687Y-3.4152
X3.6687Y-3.5152
X3.6687Y-3.6152
X3.6687Y-3.7152
X3.6687Y-3.8152
X3.6687Y-3.9152
X3.6687Y-4.0152
X3.6687Y-4.1152
X3.6687Y-4.2152
X3.6687Y-4.3152
X3.6687Y-4.4152
X3.6687Y-4.5152
X3.6687Y-4.6152
X3.6687Y-4.7152
X3.6687Y-4.8152
X3.6687Y-4.9152
X3.6687Y-5.0152
X3.6687Y-5.1152
X3.6687Y-5.2152
X3.6687Y-5.3152
X3.6687Y-5.4152
X3.6687Y-5.5152
X3.6687Y-5.6152
X3.6687Y-5.7152
X3.6687Y-5.8152
X3.6687Y-5.9152
X3.6687Y-6.0152
X3.6687Y-6.1152
X3.6687Y-6.2152
X3.8687Y-3.2152
X3.8687Y-3.3152
X3.8687Y-3.4152
X3.8687Y-3.5152
X3.8687Y-3.6152
X3.8687Y-3.7152
X3.8687Y-3.8152
X3.8687Y-3.9152
X3.8687Y-4.0152
X3.8687Y-4.1152
X3.8687Y-4.2152
X3.8687Y-4.3152
X3.8687Y-4.4152
X3.8687Y-4.5152
X3.8687Y-4.6152
X3.8687Y-4.7152
X3.8687Y-4.8152
X3.8687Y-4.9152
X3.8687Y-5.0152
X3.8687Y-5.1152
X3.8687Y-5.2152
X3.8687Y-5.3152
X3.8687Y-5.4152
X3.8687Y-5.5152
X3.8687Y-5.6152
X3.8687Y-5.7152
X3.8687Y-5.8152
X3.8687Y-5.9152
X3.8687Y-6.0152
X3.8687Y-6.1152
X3.8687Y-6.2152
X4.4687Y-3.2152
X4.4687Y-3.3152
X4.4687Y-3.4152
X4.4687Y-3.5152
X4.4687Y-3.6152
X4.4687Y-3.7152
X4.4687Y-3.8152
X4.4687Y-3.9152
X4.4687Y-4.0152
X4.4687Y-4.1152
X4.4687Y-4.2152
X4.4687Y-4.3152
X4.4687Y-4.4152
X4.4687Y-4.5152
X4.4687Y-4.6152
X4.4687Y-4.7152
X4.4687Y-4.8152
X4.4687Y-4.9152
X4.4687Y-5.0152
X4.4687Y-5.1152
X4.4687Y-5.2152
X4.4687Y-5.3152
X4.4687Y-5.4152
X4.4687Y-5.5152
X4.4687Y-5.6152
X4.4687Y-5.7152
X4.4687Y-5.8152
X4.4687Y-5.9152
X4.4687Y-6.0152
X4.4687Y-6.1152
X4.4687Y-6.2152
X4.6687Y-3.2152
X4.6687Y-3.3152
X4.6687Y-3.4152
X4.6687Y-3.5152
X4.6687Y-3.6152
X4.6687Y-3.7152
X4.6687Y-3.8152
X4.6687Y-3.9152
X4.6687Y-4.0152
X4.6687Y-4.1152
X4.6687Y-4.2152
X4.6687Y-4.3152
X4.6687Y-4.4152
X4.6687Y-4.5152
X4.6687Y-4.6152
X4.6687Y-4.7152
X4.6687Y-4.8152
X4.6687Y-4.9152
X4.6687Y-5.0152
X4.6687Y-5.1152
X4.6687Y-5.2152
X4.6687Y-5.3152
X4.6687Y-5.4152
X4.6687Y-5.5152
X4.6687Y-5.6152
X4.6687Y-5.7152
X4.6687Y-5.8152
X4.6687Y-5.9152
X4.6687Y-6.0152
X4.6687Y-6.1152
X4.6687Y-6.2152
X5.2687Y-3.2152
X5.2687Y-3.3152
X5.2687Y-3.4152
X5.2687Y-3.5152
X5.2687Y-3.6152
X5.2687Y-3.7152
X5.2687Y-3.8152
X5.2687Y-3.9152
X5.2687Y-4.0152
X5.2687Y-4.1152
X5.2687Y-4.2152
X5.2687Y-4.3152
X5.2687Y-4.4152
X5.2687Y-4.5152
X5.2687Y-4.6152
X5.2687Y-4.7152
X5.2687Y-4.8152
X5.2687Y-4.9152
X5.2687Y-5.0152
X5.2687Y-5.1152
X5.2687Y-5.2152
X5.2687Y-5.3152
X5.2687Y-5.4152
X5.2687Y-5.5152
X5.2687Y-5.6152
X5.2687Y-5.7152
X5.2687Y-5.8152
X5.2687Y-5.9152
X5.2687Y-6.0152
X5.2687Y-6.1152
X5.2687Y-6.2152
X5.4687Y-3.2152
X5.4687Y-3.3152
X5.4687Y-3.4152
X5.4687Y-3.5152
X5.4687Y-3.6152
X5.4687Y-3.7152
X5.4687Y-3.8152
X5.4687Y-3.9152
X5.4687Y-4.0152
X5.4687Y-4.1152
X5.4687Y-4.2152
X5.4687Y-4.3152
X5.4687Y-4.4152
X5.4687Y-4.5152
X5.4687Y-4.6152
X5.4687Y-4.7152
X5.4687Y-4.8152
X5.4687Y-4.9152
X5.4687Y-5.0152
X5.4687Y-5.1152
X5.4687Y-5.2152
X5.4687Y-5.3152
X5.4687Y-5.4152
X5.4687Y-5.5152
X5.4687Y-5.6152
X5.4687Y-5.7152
X5.4687Y-5.8152
X5.4687Y-5.9152
X5.4687Y-6.0152
X5.4687Y-6.1152
X5.4687Y-6.2152
X6.0687Y-3.2152
X6.0687Y-3.3152
X6.0687Y-3.4152
X6.0687Y-3.5152
X6.0687Y-3.6152
X6.0687Y-3.7152
X6.0687Y-3.8152
X6.0687Y-3.9152
X6.0687Y-4.0152
X6.0687Y-4.1152
X6.0687Y-4.2152
X6.0687Y-4.3152
X6.0687Y-4.4152
X6.0687Y-4.5152
X6.0687Y-4.6152
X6.0687Y-4.7152
X6.0687Y-4.8152
X6.0687Y-4.9152
X6.0687Y-5.0152
X6.0687Y-5.1152
X6.0687Y-5.2152
X6.0687Y-5.3152
X6.0687Y-5.4152
X6.0687Y-5.5152
X6.0687Y-5.6152
X6.0687Y-5.7152
X6.0687Y-5.8152
X6.0687Y-5.9152
X6.0687Y-6.0152
X6.0687Y-6.1152
X6.0687Y-6.2152
X6.2687Y-3.2152
X6.2687Y-3.3152
X6.2687Y-3.4152
X6.2687Y-3.5152
X6.2687Y-3.6152
X6.2687Y-3.7152
X6.2687Y-3.8152
X6.2687Y-3.9152
X6.2687Y-4.0152
X6.2687Y-4.1152
X6.2687Y-4.2152
X6.2687Y-4.3152
X6.2687Y-4.4152
X6.2687Y-4.5152
X6.2687Y-4.6152
X6.2687Y-4.7152
X6.2687Y-4.8152
X6.2687Y-4.9152
X6.2687Y-5.0152
X6.2687Y-5.1152
X6.2687Y-5.2152
X6.2687Y-5.3152
X6.2687Y-5.4152
X6.2687Y-5.5152
X6.2687Y-5.6152
X6.2687Y-5.7152
X6.2687Y-5.8152
X6.2687Y-5.9152
X6.2687Y-6.0152
X6.2687Y-6.1152
X6.2687Y-6.2152
X6.8687Y-3.2152
X6.8687Y-3.3152
X6.8687Y-3.4152
X6.8687Y-3.5152
X6.8687Y-3.6152
X6.8687Y-3.7152
X6.8687Y-3.8152
X6.8687Y-3.9152
X6.8687Y-4.0152
X6.8687Y-4.1152
X6.8687Y-4.2152
X6.8687Y-4.3152
X6.8687Y-4.4152
X6.8687Y-4.5152
X6.8687Y-4.6152
X6.8687Y-4.7152
X6.8687Y-4.8152
X6.8687Y-4.9152
X6.8687Y-5.0152
X6.8687Y-5.1152
X6.8687Y-5.2152
X6.8687Y-5.3152
X6.8687Y-5.4152
X6.8687Y-5.5152
X6.8687Y-5.6152
X6.8687Y-5.7152
X6.8687Y-5.8152
X6.8687Y-5.9152
X6.8687Y-6.0152
X6.8687Y-6.1152
X6.8687Y-6.2152
X7.0687Y-3.2152
X7.0687Y-3.3152
X7.0687Y-3.4152
X7.0687Y-3.5152
X7.0687Y-3.6152
X7.0687Y-3.7152
X7.0687Y-3.8152
X7.0687Y-3.9152
X7.0687Y-4.0152
X7.0687Y-4.1152
X7.0687Y-4.2152
X7.0687Y-4.3152
X7.0687Y-4.4152
X7.0687Y-4.5152
X7.0687Y-4.6152
X7.0687Y-4.7152
X7.0687Y-4.8152
X7.0687Y-4.9152
X7.0687Y-5.0152
X7.0687Y-5.1152
X7.0687Y-5.2152
X7.0687Y-5.3152
X7.0687Y-5.4152
X7.0687Y-5.5152
X7.0687Y-5.6152
X7.0687Y-5.7152
X7.0687Y-5.8152
X7.0687Y-5.9152
X7.0687Y-6.0152
X7.0687Y-6.1152
X7.0687Y-6.2152
T7
X3.5117Y-11.3171
X3.5117Y-11.7171
X3.7557Y-11.3171
X3.7557Y-11.7171
X11.4Y-4.9251
X11.4Y-5.3251
X11.606Y-4.8711
X11.606Y-5.2711
T8
X6.5126Y-11.4302
X6.5126Y-11.6468
X6.678Y-11.4302
X6.678Y-11.6468
X6.8433Y-11.4302
X6.8433Y-11.6468
X7.0087Y-11.4302
X7.0087Y-11.6468
X7.174Y-11.4302
X7.174Y-11.6468
X7.3394Y-11.4302
X7.3394Y-11.6468
X7.5047Y-11.4302
X7.5047Y-11.6468
X7.6701Y-11.4302
X7.6701Y-11.6468
X7.8354Y-11.4302
X7.8354Y-11.6468
X8.0008Y-11.4302
X8.0008Y-11.6468
T9
X3.2677Y-2.6131
X3.2677Y-8.7131
X3.2677Y-11.5631
X4.0677Y-2.6131
X4.0677Y-8.7131
X4.0677Y-11.5631
X5.8677Y-2.6131
X5.8677Y-8.7131
X5.8677Y-11.5631
X12.0677Y-3.5131
X12.0677Y-8.7131
X12.0677Y-11.5631
M30
